<?xml version="1.0" encoding="utf-8"?>
<!-- Generator: Adobe Illustrator 16.0.0, SVG Export Plug-In . SVG Version: 6.00 Build 0)  -->
<!DOCTYPE svg PUBLIC "-//W3C//DTD SVG 1.1//EN" "http://www.w3.org/Graphics/SVG/1.1/DTD/svg11.dtd">
<svg version="1.1" id="图层_1" xmlns="http://www.w3.org/2000/svg" xmlns:xlink="http://www.w3.org/1999/xlink" x="0px" y="0px"
	 width="200px" height="56px" viewBox="0 0 200 56" enable-background="new 0 0 200 56" xml:space="preserve">
<g>
	<path fill="#FFFFFF" d="M117,9.757v10.016c-2-1.974-4.37-2.973-7.197-2.973c-3.271,0-6.013,1.174-8.285,3.487
		c-2.27,2.311-3.386,5.133-3.386,8.387c0,3.253,1.155,6.08,3.397,8.403c2.246,2.329,4.871,3.511,8.066,3.511
		c2.793,0,5.404-1.033,7.404-3.074v3.243h4v-31H117z M110.002,36.466c-2.066,0-3.789-0.755-5.268-2.309
		c-1.487-1.56-2.211-3.334-2.211-5.425c0-2.089,0.705-3.858,2.153-5.408c1.44-1.538,3.188-2.285,5.343-2.285
		c2.158,0,3.896,0.723,5.31,2.209c1.421,1.495,2.11,3.315,2.11,5.562c0,2.237-0.742,4.031-2.269,5.484
		C113.637,35.757,111.945,36.466,110.002,36.466z"/>
	<path fill="#FFFFFF" d="M66,16.757v3.017c-2-1.944-4.479-2.928-7.235-2.928c-3.162,0-5.858,1.13-8.156,3.36
		c-2.304,2.236-3.423,4.97-3.395,8.116c-0.028,3.021,1.082,5.679,3.262,7.9c2.182,2.223,4.936,3.35,8.167,3.35
		c1.613,0,3.197-0.319,4.698-0.947c1.078-0.451,2.057-1.055,2.916-1.803c-0.076,1.513-0.311,2.672-0.701,3.453
		c-0.467,0.936-1.297,1.699-2.465,2.271c-1.204,0.59-2.592,0.889-4.125,0.889c-3.357,0-5.684-1.041-7.113-3.604l-0.156-0.072h-4.585
		l0.295,0.539c1.943,4.929,5.873,7.324,11.678,7.324c1.706,0,3.295-0.308,4.725-0.812c1.444-0.51,2.702-1.297,3.737-2.291
		c1.039-0.998,1.504-2.246,2.017-3.686C70.073,39.396,70,37.268,70,34.344V16.757H66z M66.404,28.326
		c0,2.094-0.673,3.76-2.056,5.094c-1.388,1.34-3.136,1.991-5.343,1.991s-3.96-0.664-5.361-2.028
		c-1.398-1.359-2.077-2.976-2.077-4.938c0-1.967,0.714-3.649,2.184-5.144c1.466-1.491,3.237-2.216,5.411-2.216
		c2.048,0,3.73,0.67,5.146,2.047C65.719,24.507,66.404,26.206,66.404,28.326z"/>
	<path fill="#FFFFFF" d="M32.739,18.945c-2.382-1.64-4.421-2.191-6.966-2.191c-3.271,0-6.086,1.173-8.359,3.487
		c-2.27,2.311-3.423,5.126-3.423,8.366s1.142,6.066,3.397,8.403c2.26,2.343,4.967,3.53,8.148,3.53c2.781,0,5.464-1.033,7.464-3.074
		v3.289h4c0,0,0-12.17,0-13.411c0-2.253-1.1-4.823-1.595-5.521c-0.421-0.644-1.095-1.443-1.538-1.854
		C33.394,19.532,32.976,19.109,32.739,18.945z M25.823,36.421c-2.066,0-3.79-0.75-5.27-2.29c-1.485-1.548-2.208-3.322-2.208-5.424
		c0-2.104,0.71-3.878,2.171-5.426c1.453-1.539,3.182-2.287,5.287-2.287c2.107,0,3.838,0.724,5.292,2.214
		c1.458,1.495,2.166,3.3,2.166,5.519c0,2.217-0.72,4.014-2.2,5.494C29.582,35.701,27.868,36.421,25.823,36.421z"/>
	<path fill="#FFFFFF" d="M142.27,18.945c-2.384-1.64-4.422-2.191-6.967-2.191c-3.271,0-6.086,1.173-8.359,3.487
		c-2.27,2.311-3.422,5.126-3.422,8.366s1.143,6.066,3.396,8.403c2.261,2.343,4.702,3.53,7.884,3.53c2.781,0,5.199-1.033,7.199-3.074
		v3.289h5c0,0,0-12.17,0-13.411c0-2.253-1.334-4.823-1.83-5.521c-0.42-0.644-1.213-1.443-1.654-1.854
		C143.04,19.532,142.505,19.109,142.27,18.945z M135.354,36.421c-2.066,0-3.791-0.75-5.271-2.29
		c-1.485-1.548-2.208-3.322-2.208-5.424c0-2.104,0.711-3.878,2.172-5.426c1.453-1.539,3.184-2.287,5.286-2.287
		c2.106,0,3.839,0.724,5.292,2.214c1.458,1.495,2.166,3.3,2.166,5.519c0,2.217-0.721,4.014-2.2,5.494S137.396,36.421,135.354,36.421
		z"/>
	<path fill="#FFFFFF" d="M180.508,18.945c-2.382-1.64-4.421-2.191-6.965-2.191c-3.271,0-6.087,1.173-8.359,3.487
		c-2.271,2.311-3.424,5.126-3.424,8.366s1.143,6.066,3.397,8.403c2.26,2.343,5.081,3.53,8.263,3.53c2.781,0,4.58-1.033,7.58-3.074
		v3.289h4c0,0,0-12.17,0-13.411c0-2.253-1.215-4.823-1.71-5.521c-0.421-0.644-1.153-1.443-1.597-1.854
		C181.221,19.532,180.745,19.109,180.508,18.945z M173.592,36.421c-2.066,0-3.789-0.75-5.27-2.29
		c-1.485-1.548-2.207-3.322-2.207-5.424c0-2.104,0.71-3.878,2.171-5.426c1.453-1.539,3.183-2.287,5.287-2.287
		c2.106,0,3.838,0.724,5.292,2.214c1.457,1.495,2.166,3.3,2.166,5.519c0,2.217-0.721,4.014-2.2,5.494S175.637,36.421,173.592,36.421
		z"/>
	<path fill="#FFFFFF" d="M42.424,9.276c0.708,0,1.304,0.243,1.79,0.728c0.485,0.485,0.728,1.076,0.728,1.77
		c0,0.696-0.242,1.286-0.728,1.77c-0.486,0.485-1.076,0.728-1.77,0.728c-0.695,0-1.285-0.249-1.77-0.747
		c-0.486-0.499-0.728-1.082-0.728-1.751c0-0.668,0.242-1.251,0.728-1.75C41.159,9.525,41.742,9.276,42.424,9.276z"/>
	<rect x="40.811" y="17.398" fill="#FFFFFF" width="3.265" height="22.534"/>
	<rect x="40.265" y="16.838" fill="#FFFFFF" width="4.357" height="23.653"/>
	<rect x="41.357" y="17.958" fill="#FFFFFF" width="2.172" height="21.413"/>
	<path fill="#FFFFFF" d="M42.443,14.817c-0.845,0-1.572-0.307-2.161-0.912c-0.585-0.601-0.882-1.318-0.882-2.132
		c0-0.813,0.297-1.53,0.883-2.131c0.589-0.605,1.31-0.912,2.141-0.912c0.854,0,1.586,0.298,2.176,0.887
		c0.589,0.59,0.888,1.315,0.888,2.156c0,0.842-0.299,1.567-0.888,2.156C44.011,14.518,43.285,14.817,42.443,14.817z"/>
	<path fill="#FFFFFF" d="M42.424,9.823c-0.533,0-0.977,0.19-1.359,0.582c-0.385,0.396-0.572,0.844-0.572,1.369
		c0,0.526,0.188,0.974,0.572,1.369c0.382,0.393,0.833,0.583,1.379,0.583c0.549,0,1.001-0.186,1.384-0.568
		c0.382-0.382,0.567-0.834,0.567-1.384c0-0.548-0.186-1.001-0.567-1.384C43.445,10.008,42.986,9.823,42.424,9.823z"/>
	<path fill="#FFFFFF" d="M92.548,20.263c-2.26-2.328-5.045-3.509-8.277-3.509c-3.259,0-6.058,1.181-8.318,3.509
		c-2.256,2.324-3.399,5.152-3.399,8.404c0,3.253,1.137,6.075,3.379,8.385c2.247,2.315,5.052,3.489,8.338,3.489
		s6.084-1.175,8.318-3.491c2.229-2.31,3.359-5.131,3.359-8.383C95.948,25.416,94.804,22.587,92.548,20.263z M84.271,36.342
		c-2.119,0-3.829-0.717-5.229-2.189c-1.407-1.481-2.091-3.236-2.091-5.365c0-2.131,0.71-3.918,2.171-5.466
		c1.453-1.538,3.13-2.287,5.128-2.287c2,0,3.685,0.749,5.15,2.289c1.474,1.548,2.19,3.329,2.19,5.444
		c0,2.114-0.703,3.868-2.147,5.362C88.004,35.618,86.312,36.342,84.271,36.342z"/>
	<path fill="#FFFFFF" d="M161,21.757v-4h-6v-8h-4v7.79l0,0v3.824l0,0v12.201c0,1.479-0.16,4.291,0.4,5.279
		c0.718,1.265,2.244,1.64,3.647,1.64c0.687,0,3.247-0.058,4.527-0.271L160,40.145v-4.388h-3.486c-1.707,0-1.514-0.778-1.514-1.821
		V21.757H161z"/>
</g>
</svg>
