<?xml version="1.0" encoding="utf-8"?>
<!-- Generator: Adobe Illustrator 21.0.0, SVG Export Plug-In . SVG Version: 6.00 Build 0)  -->
<svg version="1.1" id="图层_1" xmlns="http://www.w3.org/2000/svg" xmlns:xlink="http://www.w3.org/1999/xlink" x="0px" y="0px"
	 viewBox="0 0 200 200" style="enable-background:new 0 0 200 200;" xml:space="preserve">
<style type="text/css">
	.st0{fill:#FFFFFF;}
</style>
<path class="st0" d="M100.5,3.5c27.9,0.6,50.9,10.2,69.3,28.7c18.4,18.5,27.9,42,28.5,69.8c-0.3,22.2-6.8,41.4-19,58.3
	c-12.3,17-28.2,28.4-48.2,35.5c-2.5,0.3-4.3,0-5.2-0.9c-0.9-1.2-1.5-2.5-1.5-3.7l0.3-27.2c0-4.6-0.6-8.3-2.1-11.4
	c-1.2-3.1-2.8-5.3-4.6-6.8c11.4-0.6,21.5-4.3,30.7-11.1c8.9-6.5,13.8-19.1,14.4-37.7c0-5.3-0.9-10.2-2.8-14.5
	c-1.8-4.3-4.3-8.3-7.4-11.7c0.6-1.2,1.5-4.3,1.8-9c0.6-4.6-0.3-10.5-2.8-17.3c0-0.3-2.1-0.3-6.4,0.3c-4.3,0.6-11,4-20.6,9.9
	c-8-2.2-16-3.4-24.5-3.4S83.9,52.6,76,54.8c-9.2-6.2-16.3-9.3-20.6-9.9c-4.3-0.6-6.5-0.6-6.5-0.3c-2.4,6.8-3.4,12.7-2.8,17.3
	c0.6,4.6,1.2,7.7,1.8,9c-3.1,3.4-5.8,7.1-7.4,11.7c-1.8,4.3-2.8,9.3-2.8,14.8c0.6,18.5,5.2,30.9,14.1,37.7
	c8.9,6.8,19,10.5,30.4,11.1c-1.5,1.2-2.8,2.8-3.7,4.9c-1.2,2.2-1.8,4.9-2.4,8c-3.4,1.9-7.7,2.5-13.5,2.2c-5.8-0.3-10.7-3.7-15-10.5
	c-2.1-3.4-4.3-5.9-7.1-7.4c-2.8-1.5-5.2-2.5-8.3-2.8c-2.5-0.3-4,0-4.6,1.2c-0.6,0.9,0.6,2.5,3.7,4.6c3.1,2.2,5.5,4.3,7.1,6.8
	c1.5,2.5,2.8,5.3,4,7.7c1.5,4,4.9,7.4,10.4,10.2c5.2,2.8,12.9,3.1,22.7,1.2l0.3,18.2c0,1.5-0.6,2.8-1.5,3.7
	c-0.9,1.2-2.8,1.5-5.2,0.9c-19.9-6.8-35.9-18.8-48.2-35.5c-12.3-16.7-18.4-36.1-18.7-58c0.6-28.1,10.1-51.3,28.5-69.8
	C49.3,13.4,72.6,3.8,100.2,3.2L100.5,3.5z"/>
</svg>
